<?xml version="1.0" encoding="UTF-8"?>
<svg xmlns="http://www.w3.org/2000/svg" version="1.1" viewBox="0 0 536.2 67.7">
  <defs>
    <style>
      .cls-1 {
        fill: #5b052a;
      }
    </style>
  </defs>
  <!-- Generator: Adobe Illustrator 28.7.1, SVG Export Plug-In . SVG Version: 1.2.0 Build 142)  -->
  <g>
    <g id="Layer_1">
      <g>
        <path class="cls-1" d="M221,5.8c-.7-.2-1.4-.2-2-.5-1.3-.5-1.8-1.4-1.8-2.5,0-1.3.7-1.9,2.3-2.2,2.8-.5,5.5-.3,8.5.2,1.2,2,2.4,4.1,3.6,6.2,3.1,5.5,5.1,11.5,7.5,17.4,1.9,4.7,3.9,9.3,5.8,14,1.1,2.9,1.9,5.8,2.8,8.7.4,1.3,1,2.6,1.7,3.7,0-1.9,0-3.8,0-5.6,0-3-.2-6-.2-9,0-6.2.3-12.3.4-18.5,0-1.6-.3-3.3-.5-4.9-.2-1.9-.5-3.7-.8-5.7-1.1-2.5-4.3-2.5-5.9-4.8.1-.6.3-1.3.4-1.8,3.9-.2,7.5-.3,11.1-.4,1.6,0,2.4.2,3.8,1.5-.3.7-.6,1.6-1,2.4-1.1,0-2,.2-2.9.2-.8.7-.6,1.5-.6,2.4.2,2.3.4,4.6.5,6.8,0,10.9,0,21.8.2,32.7,0,5.3.5,10.6.8,15.9,0,.8.1,1.6,0,2.4,0,1.5-.8,2.5-2.1,2.8-1.8.4-3.7-.3-4.3-1.7-.4-1-.7-2.1-1.1-3.1-2.8-8.6-5.5-17.3-8.3-25.9-.7-2.1-1.5-4.2-2.3-6.2-1.2-2.7-2.3-5.3-2.8-8.3-.1-1-.6-1.9-1.5-2.6-.4,1.7-.6,37.9-.1,41.4,1,.4,2.2.8,3.5,1.3.1,1.4.7,3,0,4.6-1.5.5-12.1.8-13.9.4v-4.5c.5-.1,1.2-.2,2.1-.4.2-1.1.6-2.3.6-3.4,0-3.8-.2-7.6-.3-11.4-.1-5,0-10-.3-14.9-.2-4.1-.3-8.2-1.1-12.3-.4-2.2-.2-4.6-.2-6.9,0-2.6-.3-5.2-1.6-7.7Z"/>
        <path class="cls-1" d="M469.8,19.4v41.1c.9,1.3,2.4,1.1,3.7,1.7,0,1.6.8,3.2-.2,4.7-1.9.5-12.4.7-13.8.2v-4.5c.6,0,1.2-.2,2.1-.3.2-1.1.6-2.3.6-3.6,0-3.7-.2-7.4-.3-11.1,0-4-.2-7.9-.2-11.9,0-5.3-.3-10.6-1.2-15.8-.4-2.1-.1-4.4-.1-6.6,0-2.6-.3-5-1.5-7.5-.6-.1-1.3-.2-1.9-.5-1.3-.5-2-1.5-1.8-2.7.1-1.2.7-1.8,2.2-2,2.8-.5,5.7-.4,8.7.2,1.6,2.9,3.4,5.8,4.8,8.8,1.8,3.9,3.4,8,5.1,12,2.3,5.6,4.7,11.2,6.9,16.8,1.1,2.8,1.8,5.7,2.8,8.5.4,1.3,1,2.6,1.8,3.8,0-1.8,0-3.7,0-5.5,0-3.2-.2-6.5-.2-9.7,0-6.1.3-12.2.3-18.3,0-1.8-.3-3.6-.6-5.4-.2-1.6-.5-3.3-.7-5-.9-1.1-2-2-3.4-2.7-.9-.4-1.7-1.1-2.6-1.7.2-.8.4-1.5.5-2,4-.2,7.7-.4,11.5-.4,1.2,0,2.6,0,3.4,1.7-.3.7-.7,1.5-1.1,2.3-1.1,0-2,.1-3.3.2,0,.9-.1,1.7,0,2.5.1,2.1.4,4.2.4,6.4,0,9.8,0,19.6.1,29.4.1,6.6.5,13.1.8,19.7,0,.6,0,1.1,0,1.7,0,2-.7,3.2-2.2,3.4-2.3.3-3.9-.5-4.4-2.2-.5-1.9-1.3-3.7-1.9-5.6-2.4-7.6-4.8-15.2-7.3-22.7-.8-2.5-2-5-2.9-7.5-.8-2.2-1.5-4.5-2.2-6.7-.3-1.1-.6-2.3-1.9-3Z"/>
        <path class="cls-1" d="M263.5,67.2c-1.1-1-2.3-2-2.6-3.9,1.3-.5,2.5-.3,3.7-.3,1.7,0,3.1-.2,4.4-1.5,0-.2.1-.5.1-.8,0-6.6,0-13.3-.2-19.9,0-3.1-.7-6.1-.9-9.2-.2-3.1-.2-6.3-.4-9.5-.2-2.6-.6-5.1-1-7.7-.1-1-.3-2-.3-3,0-1.1,0-2.2,0-3.3-1.9-.7-3.5,1.4-5.3,0,0-.7,0-1.5-.1-2.3,1.5-1.3,2.8-2.7,4.3-3.6,1.6-1.1,3.5-1.4,5.4-1.4,3.8,0,7.6,0,11.5,0,2.3,1.6,4.8,3.2,7,5.1,1.4,1.2,2.6,2.8,3.5,4.4,3.2,5.7,5.1,11.8,5.6,18.4.3,4-.1,7.8-.4,11.8-.5,8.1-4.7,14.4-9.4,20.5-1.8,2.3-4.8,3.3-7.5,4.4-.3.1-.6.2-.9.2-5.3,0-10.3,2.1-15.7,1.8-.2,0-.5,0-.8-.1ZM284.3,57c2.7-4,3.3-8.3,3.4-12.8,0-2,.1-3.9.3-5.9.3-3.2.7-6.4-.3-9.6,0-.1,0-.3,0-.5.3-3.5-.6-6.9-1.1-10.3-.5-3-1-6.1-2.6-8.8-1.7-2.9-3.1-4.6-7.8-3.8-.7,1.4-.9,3-.8,4.5.2,5.8.6,11.5.7,17.3.1,5.2,0,10.4.2,15.7,0,2.7.4,5.5.9,8.2.4,2.3.7,4.5,0,6.8-.2.9-.3,1.7.6,2.4,2.6,0,4.2-2.2,6.4-3.1Z"/>
        <path class="cls-1" d="M501.3,67.1c-1.1-1-2.2-2.1-2.7-3.9,1.2-.5,2.4-.3,3.5-.2,1.8,0,3.5-.1,4.9-1.6,0-.6,0-1.3,0-2,0-4.1.2-8.2,0-12.3-.2-4.5-.8-9-1.1-13.4-.2-2.3-.1-4.6-.3-6.9-.2-3.5-.5-7.1-.9-10.6-.2-2.7-.6-5.3-.9-8.2-1.3-.4-2.5.6-4.1.7-1.6-.4-1.3-1.7-1.2-2.9,1.4-1.2,2.6-2.5,4-3.5,1.6-1.1,3.5-1.4,5.4-1.5,3.9-.1,7.7-.2,11.5-.2,2.7,1.9,5.3,3.5,7.6,5.5,1.3,1.1,2.3,2.8,3.2,4.3,4.6,8.1,6.2,16.8,5.7,26-.4,7.3-2.2,14.3-6.9,20.3-.5.6-1,1.3-1.4,1.9-2.2,3.8-6,5.4-9.9,6.8,0,0-.1,0-.2,0-5.3,0-10.4,2.1-15.7,1.8-.2,0-.5,0-.8-.1ZM522.6,56.5c1.2-1.9,2.2-4.5,2.6-7.2.3-2.3.3-4.6.5-6.8.2-2.3.4-4.6.5-6.8,0-1.5,0-3,0-4.5,0-1.4-.3-2.8-.4-4.2,0-1-.1-2-.3-3-.5-3-.9-6.1-1.6-9.1-.5-2-1.2-4.1-2.1-6-1.7-3.4-3.7-4.2-7.8-3.4-.1.8-.4,1.7-.4,2.7,0,4.3.1,8.7.2,13,.2,5.3.5,10.6.6,15.8,0,2.7,0,5.4,0,8.1,0,1.7.2,3.5.6,5.1.6,2.6,1.1,5.2.3,7.9-.2.8-.2,1.5.7,2.2,1.1-.4,2.3-.6,3.4-1.2,1.1-.6,1.9-1.5,3.3-2.5Z"/>
        <path class="cls-1" d="M419,5.5c-1.4-1.5-3.6-1.3-3.9-3.7.7-.3,1.4-.9,2.2-1,2.6-.3,5.2-.5,7.8-.5,1.6,0,3.2.3,4.2,2.1-.3.6-.5,1.5-1,2.2-.8,1-1,2.1-1,3.3,0,13.1,0,26.2.2,39.4,0,3.4.5,6.7,1.1,10.1,0,.1.2.3.3.4,4.1,3.9,7.8,2.4,9.8-1.9,1.5-3.2,2-6.6,2.1-10.1,0-7.7,0-15.5,0-23.2,0-3.7.3-7.4.5-11.1,0-.6,0-1.3,0-1.9.1-2.4-.4-4.4-3.1-5-.4-1.1-.8-2.1-1.2-3.2.3-.2.5-.4.7-.4,3.7,0,7.4-.2,11.1-.1,2.2,0,2.8.7,3.7,2.7,0,.2,0,.5-.3.6-2.6,2.6-2.8,5.9-2.9,9.2-.2,10-.3,20.1-.6,30.1-.1,5.3-1.2,10.5-3.8,15.2-.9,1.6-2,3.2-3.2,4.6-3.4,3.8-9.6,5.2-13.9,2.9-4.1-2.2-6.7-5.6-7.6-10.3-1.1-6.4-1.4-12.8-1.3-19.3.1-6.3,0-12.6,0-19,0-2.9.2-5.8.2-8.8,0-1.2-.3-2.5-.3-3.4Z"/>
        <path class="cls-1" d="M374.4,32.6c-.7-5.2.7-10.8,1.5-16.4.1-.9.5-1.9,1-2.6,1.8-2.8,3.7-5.5,5.7-8.2,2.4-3.2,5.7-5,9.8-4.7.9,0,1.9,0,2.8.1,3.7.3,6.7,1.7,8.8,4.8.2.3.5.6.8.9,5.1,4,6.9,9.6,7.6,15.8.7,5.8.7,11.5,0,17.3-1,7.6-3.1,14.8-7,21.4-2.8,4.8-7.4,6.6-12.7,6.3-6-.4-10.4-3.4-13.1-8.8-2.1-4.1-4-8.3-4.5-12.9-.4-3.8-.4-7.6-.6-11.4,0-.4,0-.8,0-1.7ZM390.7,5.2c-3.4,3.6-5.5,8.1-6.3,12.9-.7,4.4-.9,9-.9,13.5,0,4.9.5,9.8.9,14.6.3,3.6,1,7.2,2.4,10.5.7,1.8,1.9,3.4,3,4.9.4.5,1.2.8,1.9.8,1.2.1,2.4.2,3.5,0,2.3-.4,4.1-1.4,4.7-4,.3-1.3.9-2.5,1.3-3.8,1.9-5.8,3.3-11.7,3-17.9,0-.8,0-1.6.2-2.4,1.1-9.1-.5-17.6-4.9-25.6-.6-1-1.3-2-2.2-2.8-.5-.5-1.2-.8-1.9-.8-1.6-.1-3.1,0-4.9,0Z"/>
        <path class="cls-1" d="M29.4,32.7c-.7-5.3.6-10.8,1.5-16.4.2-1.2.8-2.4,1.5-3.4,1.6-2.5,3.3-4.9,5-7.2,2.5-3.4,5.8-5.2,10.2-4.9.7,0,1.4,0,2.1,0,3.8.2,7.1,1.5,9.3,4.8.2.3.5.6.8.9,4.9,3.8,6.8,9.2,7.5,15,.8,6.1.8,12.2,0,18.2-1,7.5-3.1,14.7-7,21.2-2.7,4.6-7.1,6.5-12.2,6.3-6.1-.2-10.7-3.1-13.5-8.5-2.1-4.1-4-8.2-4.5-12.9-.3-2.9-.5-5.8-.6-8.7,0-1.3,0-2.7,0-4.5ZM45.8,5.1c-3.6,3.7-5.6,8.1-6.4,12.9-.8,4.5-.8,9.1-1,13.7-.1,6,.5,12,1.5,17.9.4,2.7,1.3,5.4,2.2,7.9.6,1.5,1.8,2.9,2.8,4.2.3.4,1,.7,1.5.7,1.7,0,3.5,0,5.1-.4,1.7-.3,2.9-1.5,3.4-3.3.4-1.3.9-2.5,1.3-3.8,1.5-5,3.1-9.9,3.1-15.2,0-2,.1-3.9.3-5.9.5-6.4.2-12.8-2.3-18.9-.9-2.2-1.9-4.4-2.9-6.5-1.1-2.2-2.7-3.6-5.4-3.4-1,0-2,0-3.2,0Z"/>
        <path class="cls-1" d="M213.6,67.3c-2.5,0-4.7,0-7,0-2.2,0-4.3.6-6.8.1.4-2.7,1.6-4.5,3.8-5.9,0-8.4,0-16.7-1.5-25.1-3.7-.6-7.3-1.1-10.8-1.6-1,1-1.3,2.1-1.4,3.2-.6,5.2-1.2,10.3-1.6,15.5-.2,2.7,0,5.5,0,8.5,1.3.3,2.5.5,3.9.8v3c-1.2,1.2-2.8,1.4-4.5,1.4-2.6,0-5.2,0-8,0-.7-.8-1.6-1.8-2.4-2.7,1.1-1.6,2.8-2.6,5-2.8.4-2.4.8-4.6,1.1-6.9,1.1-8.4,2.2-16.7,3.3-25.1.3-2.1.2-4.3.8-6.3,2-6.9,4.4-13.7,8.6-19.6.4-.6.8-1.2,1.4-1.6,2.2-1.9,4.2-1.9,6.3,0,2.2,2,3.5,4.6,4.3,7.5.3,1,.6,1.9.8,2.9.5,2.1,1.3,4.1,1.5,6.2.8,7.5,1.4,15.1,2,22.6.4,4.2.9,8.5,1.2,12.7.2,2.5,0,5.1,0,7.6,0,1.1,0,2.2.7,3.2.7.9.5,1.8-.6,2.4ZM202.1,32c0-3.3.2-6.4,0-9.5-.3-4.4-1.2-8.7-2.7-12.9-.2-.5-.6-1-.9-1.4-1.4.4-1.9,1.3-2.3,2.3-2,6.1-3.8,12.2-4.9,18.5-.1.6,0,1.2,0,1.9,3.5,1,7,1.4,10.8,1.1Z"/>
        <path class="cls-1" d="M91.8,3c.2-.2.7-.7,1.3-1.2.8.1,1.7.2,2.4.3,1.4,1.7,1.4,3.3,1,5.1-.5,2.3-1.4,4.5-2.8,6.4-1.1,1.4-1.8,1.4-3.5.5-.6-2.1.2-4.3.3-6.5-1.9-1.9-4.2-2.7-7-3-.3.9-.8,1.8-.8,2.7-.1,2.5-.2,5.1,0,7.6.3,3,2.2,5.2,4.5,6.9,1.6,1.3,3.4,2.3,5,3.6,7.4,5.8,11.2,13.3,10.8,22.8-.1,3.6-1,7-2.5,10.3-2.6,5.8-7.3,8.2-13.5,8.8-5.1.5-8.6-2-11.7-5.5-1.7-1.9-2.2-4.4-2.3-6.8-.1-2,.1-4.1.2-6.2-.7.5-1.5.9-2.2,1.3-1.5-1.3-1.7-1.6-1.8-4,1.7-1.1,3.9-1.1,5.8-1.6,1.5-.4,3.1-.7,4.6-1.1,2.4-.7,4.3.5,4.3,3,0,.7-.2,1.4-.3,1.9-.3.2-.5.4-.6.4-3.8.1-5.4,2.8-5.3,6.2,0,2.4.7,4.5,2.1,6.4.6.7,1.4,1.2,2.1,1.8,1.6-.9,3.1-1.6,4.5-2.5,4.2-2.8,6.4-6.9,7.4-11.7.9-4.3.7-8.6,0-12.9-.5-2.8-2.3-5-4.7-6.2-3.9-2-6.9-5.2-10.5-7.7-1.8-1.2-3.2-3-4.7-4.7-2.2-2.6-2.7-5.7-1.8-8.9.7-2.5,1.9-4.9,4.1-6.2,2.3-1.5,5-2.5,7.9-1.7,2.6.7,5,1.6,7.8,2.5Z"/>
        <path class="cls-1" d="M342.7,4.6c-1.3.2-2.6.4-3.9.5-2.3.2-2.7-.1-3.7-2.6.2-.5.5-1.1.8-1.8.6,0,1-.2,1.5-.2,3.2,0,6.5,0,9.7,0,6.8,0,13.6,0,20.4,0,2.8,0,3.9.8,4,3.7.2,3,0,6,0,9.2-.9.2-1.8.5-2.6.7-1.7-3.1-1.3-6.2-1.7-9.2-3.3-.9-12.1,0-15,1.5,0,1-.2,2.2-.2,3.4,0,1.8,0,3.6.1,5.5.2,2.8.6,5.7,0,8.5-.2.7,0,1.5,0,2.5h4.4v-4.9c2.1-.3,3,0,3.6,1.7.5,1.5.7,3.2.8,4.9,0,1.7-.1,3.5-.2,5.2-.9,1.5-2.3,1.5-3.9,1.3-.1-.8-.2-1.7-.4-2.6-1-1.2-2.4-1.3-3.9-1.2-1.4,1.2-1.8,2.8-1.6,4.5.3,2.6.3,5.1-.6,7.7-.4,1.2-.5,2.5-.4,3.8,0,3.9.1,7.7.3,11.6,0,1.1.5,2.3.8,3.2,2.7,1.8,2.8,1.9,3,4-.6.3-1.3.6-2.1,1-1.5-.6-3-.5-4.5.2-1.7.8-3.5.8-5.3.1-1.3-.4-2.6-.8-4-1.2-.2-.6-.4-1.3-.7-2.2.7-.5,1.3-1,2-1.2,1.5-.5,2.2-1.5,2.4-2.9.2-1.4.2-2.9.5-4.2,1-4.4.7-9,.8-13.4,0-1.6.3-3.1.4-4.7,0-.5.2-1.2,0-1.6-.7-1.8,0-3.3.4-5,.7-2.5.2-5.2-.1-7.8-.6-4.2-1.1-8.4-.3-12.7.3-1.6.4-3.3-.7-4.9Z"/>
        <path class="cls-1" d="M137.9,13c-.1-.7-.3-1.2-.3-1.7,0-.8,0-1.6-.1-2.4-.4-3.1-1.1-3.7-4.1-3.3-.8,0-1.6.3-2.3.4-.8,0-1.5.1-2.2.1-.9,1.3-.9,2.6-.8,3.8,1.2,15,.3,30,.5,45,0,1.5-.2,3-.3,4.5,0,1.4-.4,2.8.5,4,1.2.5,2.3.9,3.3,1.4.2.1.3.7.4,1-.6,1-1.4,1.5-2.4,1.5-4.5,0-9,0-13.7,0-.2-.9-.5-1.6-.7-2.5,1.5-.6,2.8-1.1,4.2-1.7,0-.6.1-1.2.1-1.8,0-14.8,0-29.6,0-44.3,0-3-.6-6-.9-8.9,0-.6-.4-1.2-.6-1.8-1.9-.3-3.7-.6-5.7-.3-4,.8-5.6,2.7-5.4,6.7,0,.2,0,.4-.2.9-.7,0-1.4,0-2.1,0-1.1-4-1.2-7.4-.4-10.1,2.7-1.8,5.8-2.5,9.1-2.6,6.7-.1,13.4-.2,20.1,0,1.6,0,3.3.5,4.8,1,.8.3,1.7,1,2,1.8.8,2.2,1.3,4.5.5,6.9-.6,1.7-1.3,2.3-3.5,2.5Z"/>
        <path class="cls-1" d="M17.4.8c.7,2.4-1,3.5-2.3,5.2-.1,3.1-.2,6.5-.4,9.9-.4,7.6-1,15.1-1.3,22.7-.2,6.9,0,13.9,0,20.9,0,.8.2,1.5.3,2.4.9,0,1.7.1,2.4.1,1.8,0,3.6,0,5.6,0v-13.6c1.9-1,2.7-.8,3.6.8.9,1.7,1,3.6.9,5.5,0,1.6-.2,3.2-.2,4.7,0,1.1.2,2.2.3,3.3.1,1.1.4,2.2-.5,3.4-1.2.1-2.6.4-4,.5-5,.2-10,.3-14.9.5-1.4,0-2.8.2-4.4.3Q0,66,0,64c.4-.2.8-.4,1.2-.5.4-.1.9-.1,1.6-.2.3-.9.8-1.9.9-2.8,2.1-15.2,1.5-30.4,1.4-45.6,0-3-.5-6-1.6-8.9-.7-.6-1.5-1.2-2.4-1.9V1.3c5.4,0,10.8-1.2,16.3-.5Z"/>
      </g>
    </g>
  </g>
</svg>