<?xml version="1.0"?>
<svg width="112.4" height="80" xmlns="http://www.w3.org/2000/svg" xmlns:svg="http://www.w3.org/2000/svg">
 <g class="layer" display="inline">
  <title>Layer 1</title>
  <path d="m109,75.5l0,-73.2c-17.9,0 -34.3,5.5 -48.8,14.6c19.1,13.6 35.8,33.8 48.8,58.6z" fill="#f6eee0" id="svg_1"/>
  <path d="m103.6,75.5c-11.8,-21.9 -28,-42.2 -47.7,-55.8l0,0c-16,-11.1 -33.9,-17.4 -53.1,-17.4l0,73.2l38.8,0l-5.8,-8l11.5,0l-3.4,-13.5l8.2,7.8l3.9,-24.5l3.9,24.5l8.2,-7.8l-3.4,13.5l11.3,0l-5.8,8l33.4,0z" fill="#f6eee0" id="svg_2"/>
 </g>
</svg>